<svg width="111" height="27" viewBox="0 0 111 27" fill="none" xmlns="http://www.w3.org/2000/svg">
<path d="M21.4688 26H16.1953L5.92969 9.16016V26H0.65625V0.40625H5.92969L16.2129 17.2812V0.40625H21.4688V26ZM37.1309 24.0664C35.877 25.5898 34.1426 26.3516 31.9277 26.3516C29.8887 26.3516 28.3301 25.7656 27.252 24.5938C26.1855 23.4219 25.6406 21.7051 25.6172 19.4434V6.98047H30.6973V19.2676C30.6973 21.248 31.5996 22.2383 33.4043 22.2383C35.127 22.2383 36.3105 21.6406 36.9551 20.4453V6.98047H42.0527V26H37.2715L37.1309 24.0664ZM51.7207 21.9043H61.0195V26H45.2344V22.9062L54.1816 11.0938H45.498V6.98047H60.7383V9.98633L51.7207 21.9043ZM72.6738 26.3516C69.8848 26.3516 67.6113 25.4961 65.8535 23.7852C64.1074 22.0742 63.2344 19.7949 63.2344 16.9473V16.4551C63.2344 14.5449 63.6035 12.8398 64.3418 11.3398C65.0801 9.82812 66.123 8.66797 67.4707 7.85938C68.8301 7.03906 70.377 6.62891 72.1113 6.62891C74.7129 6.62891 76.7578 7.44922 78.2461 9.08984C79.7461 10.7305 80.4961 13.0566 80.4961 16.0684V18.1426H68.3848C68.5488 19.3848 69.041 20.3809 69.8613 21.1309C70.6934 21.8809 71.7422 22.2559 73.0078 22.2559C74.9648 22.2559 76.4941 21.5469 77.5957 20.1289L80.0918 22.9238C79.3301 24.002 78.2988 24.8457 76.998 25.4551C75.6973 26.0527 74.2559 26.3516 72.6738 26.3516ZM72.0938 10.7422C71.0859 10.7422 70.2656 11.082 69.6328 11.7617C69.0117 12.4414 68.6133 13.4141 68.4375 14.6797H75.5039V14.2754C75.4805 13.1504 75.1758 12.2832 74.5898 11.6738C74.0039 11.0527 73.1719 10.7422 72.0938 10.7422ZM88.1602 6.98047L88.3184 9.10742C89.666 7.45508 91.4883 6.62891 93.7852 6.62891C96.2344 6.62891 97.916 7.5957 98.8301 9.5293C100.166 7.5957 102.07 6.62891 104.543 6.62891C106.605 6.62891 108.141 7.23242 109.148 8.43945C110.156 9.63477 110.66 11.4395 110.66 13.8535V26H105.562V13.8711C105.562 12.793 105.352 12.0078 104.93 11.5156C104.508 11.0117 103.764 10.7598 102.697 10.7598C101.174 10.7598 100.119 11.4863 99.5332 12.9395L99.5508 26H94.4707V13.8887C94.4707 12.7871 94.2539 11.9902 93.8203 11.498C93.3867 11.0059 92.6484 10.7598 91.6055 10.7598C90.1641 10.7598 89.1211 11.3574 88.4766 12.5527V26H83.3965V6.98047H88.1602Z" fill="#5773FF"/>
</svg>
